<?xml version="1.0" encoding="UTF-8" standalone="no"?>
<!DOCTYPE svg PUBLIC "-//W3C//DTD SVG 1.1//EN"
 "http://www.w3.org/Graphics/SVG/1.1/DTD/svg11.dtd">
<!-- Generated by graphviz version 7.1.0 (20230121.1956)
 -->
<!-- Title: snakemake_dag Pages: 1 -->
<svg width="98pt" height="116pt"
 viewBox="0.00 0.00 98.00 116.00" xmlns="http://www.w3.org/2000/svg" xmlns:xlink="http://www.w3.org/1999/xlink">
<g id="graph0" class="graph" transform="scale(1 1) rotate(0) translate(4 112)">
<title>snakemake_dag</title>
<polygon fill="white" stroke="none" points="-4,4 -4,-112 94,-112 94,4 -4,4"/>
<!-- 0 -->
<g id="node1" class="node">
<title>0</title>
<path fill="none" stroke="#566bd8" stroke-width="2" d="M71.5,-36C71.5,-36 18.5,-36 18.5,-36 12.5,-36 6.5,-30 6.5,-24 6.5,-24 6.5,-12 6.5,-12 6.5,-6 12.5,0 18.5,0 18.5,0 71.5,0 71.5,0 77.5,0 83.5,-6 83.5,-12 83.5,-12 83.5,-24 83.5,-24 83.5,-30 77.5,-36 71.5,-36"/>
<text text-anchor="middle" x="45" y="-15.5" font-family="sans" font-size="10.00">posneg_allpat</text>
</g>
<!-- 1 -->
<g id="node2" class="node">
<title>1</title>
<path fill="none" stroke="#d87d56" stroke-width="2" stroke-dasharray="5,2" d="M78,-108C78,-108 12,-108 12,-108 6,-108 0,-102 0,-96 0,-96 0,-84 0,-84 0,-78 6,-72 12,-72 12,-72 78,-72 78,-72 84,-72 90,-78 90,-84 90,-84 90,-96 90,-96 90,-102 84,-108 78,-108"/>
<text text-anchor="middle" x="45" y="-93" font-family="sans" font-size="10.00">combine_posneg</text>
<text text-anchor="middle" x="45" y="-82" font-family="sans" font-size="10.00">geo: country</text>
</g>
<!-- 1&#45;&gt;0 -->
<g id="edge1" class="edge">
<title>1&#45;&gt;0</title>
<path fill="none" stroke="grey" stroke-width="2" d="M45,-71.34C45,-64.75 45,-57.08 45,-49.67"/>
<polygon fill="grey" stroke="grey" stroke-width="2" points="48.5,-49.93 45,-39.93 41.5,-49.93 48.5,-49.93"/>
</g>
</g>
</svg>
